<svg width="368" height="28" viewBox="0 0 368 28" fill="none" xmlns="http://www.w3.org/2000/svg">
<path d="M24.7374 22.2189L18.7547 0.461853H15.6533L9.70726 22.2519L3.59256 0.461853H0L7.72035 27.5381H11.7455L17.1893 7.14113L22.6662 27.5381H26.651L34.408 0.461853H30.8521L24.7374 22.2189Z" fill="black" fill-opacity="0.56"/>
<path d="M71.6571 9.35896C71.6763 7.71242 71.2209 6.09521 70.3452 4.70071C69.4694 3.30622 68.2106 2.19351 66.7191 1.49566C65.6963 1.01176 64.021 0.461853 60.0875 0.461853H53.0124V27.5381H56.495V3.70987H60.6338C62.6903 3.70987 64.01 3.85649 65.5424 4.65565C67.0747 5.45481 68.1745 7.37209 68.1745 9.30034C68.1699 10.4827 67.7707 11.6297 67.0402 12.5595C66.3097 13.4892 65.2897 14.1484 64.142 14.4326C63.0129 14.7772 61.8728 14.7992 58.6432 14.7992H57.778L67.3093 27.5308H71.7047L64.241 17.6769C66.2847 17.4475 68.1717 16.4717 69.5403 14.9367C70.9089 13.4017 71.6627 11.4155 71.6571 9.35896Z" fill="black" fill-opacity="0.56"/>
<path d="M95.5366 0.461853H92.0504V27.5417H95.5366V0.461853Z" fill="black" fill-opacity="0.56"/>
<path d="M125.931 11.8848L125.733 11.8261C122.411 10.8693 120.01 10.1765 120.01 7.37576C120.009 6.81697 120.121 6.26376 120.34 5.74956C120.559 5.23536 120.88 4.7708 121.283 4.38398C121.686 3.99716 122.164 3.69611 122.686 3.49897C123.209 3.30183 123.767 3.21269 124.325 3.23696C125.45 3.26656 126.519 3.73393 127.305 4.53971C128.091 5.34549 128.532 6.42612 128.533 7.55172V7.98426H132.02V7.55172C132.02 3.31762 128.64 0 124.321 0C119.874 0 116.52 3.21495 116.52 7.48204C116.52 12.7316 120.721 13.956 123.232 14.6855L123.867 14.8725C125.7 15.4224 129.168 16.4415 129.168 19.9864C129.168 20.619 129.042 21.2454 128.797 21.8289C128.553 22.4125 128.194 22.9415 127.743 23.3851C127.292 23.8287 126.757 24.178 126.17 24.4127C125.582 24.6474 124.954 24.7627 124.321 24.752C121.356 24.752 119.431 22.8311 119.295 19.7445V19.3302H115.82V19.7701C115.923 25.4192 120.303 27.989 124.329 27.989C128.999 27.989 132.661 24.4221 132.661 19.8324C132.657 17.9922 132.001 13.5014 125.931 11.8848Z" fill="black" fill-opacity="0.56"/>
<path d="M150.51 3.69886H156.533V27.5381H160.02V3.69886H166.006V0.461853H150.51V3.69886Z" fill="black" fill-opacity="0.56"/>
<path d="M205.125 19.9754C202.166 23.9309 198.691 24.763 196.297 24.763C190.641 24.763 185.666 19.7664 185.666 14.0696C185.666 8.20419 190.512 3.27359 196.249 3.27359C197.199 3.27359 202.071 3.49355 204.996 7.86329L205.125 8.05392H208.955L208.703 7.45638C208.193 6.23564 206.87 4.36603 204.696 2.7787C202.259 0.994066 199.317 0.0334496 196.297 0.036629C188.386 0.036629 182.191 6.1843 182.191 14.0366C182.191 21.735 188.533 28 196.334 28C198.899 27.9773 201.411 27.2632 203.604 25.9329C205.798 24.6026 207.592 22.7053 208.798 20.4409L209.164 19.8031H205.282L205.125 19.9754Z" fill="black" fill-opacity="0.56"/>
<path d="M243.484 12.0094H230.779V0.461853H227.296V27.5381H230.779V15.2464H243.484V27.5381H246.971V0.461853H243.484V12.0094Z" fill="black" fill-opacity="0.56"/>
<path d="M268.797 27.5381H284.011V24.3011H272.284V15.4957H283.619V12.2587H272.284V3.69886H284.011V0.461853H268.797V27.5381Z" fill="black" fill-opacity="0.56"/>
<path d="M324.629 19.8031L324.5 19.9754C321.538 23.9309 318.063 24.763 315.669 24.763C310.013 24.763 305.038 19.7664 305.038 14.0696C305.038 8.20419 309.885 3.27359 315.625 3.27359C316.571 3.27359 321.443 3.49355 324.368 7.86329L324.497 8.05392H328.32L328.067 7.45638C327.554 6.23564 326.234 4.36603 324.057 2.7787C321.621 0.994066 318.678 0.0334496 315.658 0.036629C307.751 0.036629 301.552 6.1843 301.552 14.0366C301.552 21.735 307.898 28 315.695 28C318.26 27.9761 320.771 27.2615 322.965 25.9313C325.158 24.6011 326.952 22.7045 328.159 20.4409L328.526 19.8031H324.629Z" fill="black" fill-opacity="0.56"/>
<path d="M350.667 14.8028V13.2888V0.461853H347.181V27.5381H350.667V20.9138V20.0707V14.8028Z" fill="black" fill-opacity="0.56"/>
<path d="M366.589 0.461853H362.109L351.907 13.9304L355.191 18.4614L362.175 27.5381H366.563L356.203 13.9267L366.589 0.461853Z" fill="black" fill-opacity="0.56"/>
</svg>
